<?xml version="1.0" standalone="no"?>
<!DOCTYPE svg PUBLIC "-//W3C//DTD SVG 20010904//EN"
 "http://www.w3.org/TR/2001/REC-SVG-20010904/DTD/svg10.dtd">
<svg version="1.0" xmlns="http://www.w3.org/2000/svg"
 width="315.000000pt" height="243.000000pt" viewBox="0 0 315.000000 243.000000"
 preserveAspectRatio="xMidYMid meet">

<g transform="translate(0.000000,243.000000) scale(0.100000,-0.100000)"
fill="#000000" stroke="none">
<path d="M2814 2236 c-17 -27 -17 -28 14 -59 l32 -32 22 23 23 22 -37 36 -36
37 -18 -27z"/>
<path d="M1541 2141 c-1 -8 -7 -11 -17 -7 -10 4 -18 0 -21 -13 -7 -28 -73 -25
-90 4 -11 18 -12 19 -13 1 0 -12 -5 -16 -15 -12 -9 3 -15 0 -15 -9 0 -20 -17
-19 -29 3 -8 13 -10 8 -11 -27 0 -43 0 -44 -20 -26 -19 17 -20 17 -28 -5 l-9
-24 -5 22 c-4 12 -2 20 3 16 14 -8 10 6 -6 22 -13 14 -15 11 -15 -20 0 -20 -4
-36 -10 -36 -5 0 -10 5 -10 11 0 8 -4 8 -14 0 -11 -10 -17 -8 -25 6 -9 16 -10
15 -11 -9 0 -15 5 -30 10 -33 6 -3 10 -10 10 -16 0 -20 -16 -7 -40 31 -14 22
-31 40 -39 40 -11 0 -11 -4 2 -18 20 -22 24 -53 5 -34 -20 20 -28 13 -22 -20
l5 -33 -21 28 c-24 30 -46 28 -30 -4 9 -15 7 -19 -6 -19 -12 0 -15 -6 -10 -25
6 -24 -7 -35 -19 -15 -3 6 -13 10 -20 10 -11 0 -12 -6 -5 -25 9 -24 -2 -36
-14 -16 -3 5 -15 11 -27 14 -15 4 -19 2 -15 -8 4 -11 0 -12 -20 -5 -24 10 -24
10 -9 -20 14 -27 14 -30 0 -30 -18 0 -19 -11 -2 -29 10 -11 8 -11 -12 -1 -35
18 -52 -3 -23 -30 30 -28 28 -46 -3 -26 -32 21 -42 20 -23 -1 20 -23 32 -63
19 -63 -5 0 -22 5 -37 10 -32 12 -42 6 -24 -15 10 -13 9 -15 -9 -15 -12 0 -20
-4 -16 -9 3 -6 -1 -16 -8 -23 -12 -11 -12 -16 1 -36 l15 -24 -39 7 c-37 7 -38
6 -19 -9 20 -16 20 -16 -2 -22 -13 -3 -20 -10 -17 -15 3 -5 -2 -9 -10 -9 -9 0
-16 -4 -16 -10 0 -5 4 -10 10 -10 5 0 19 -10 32 -23 13 -13 47 -28 81 -36 31
-7 57 -17 57 -22 0 -13 -14 -11 -28 3 -15 15 -136 18 -149 4 -4 -5 -2 -11 5
-13 15 -6 16 -43 1 -43 -5 0 -7 -5 -4 -11 4 -5 -3 -19 -16 -30 l-22 -19 22 0
c12 0 20 -4 17 -9 -3 -5 2 -12 12 -16 16 -7 15 -8 -3 -15 -18 -7 -16 -9 15
-23 29 -12 32 -16 17 -22 -16 -7 -17 -8 -1 -20 16 -11 13 -14 -22 -25 -53 -17
-131 -65 -176 -108 -47 -45 -52 -97 -14 -147 31 -41 125 -90 201 -105 121 -23
135 -29 135 -53 0 -43 27 -67 76 -67 l46 0 -7 -32 c-7 -32 -7 -32 11 -17 24
21 69 36 60 20 -4 -6 -3 -11 2 -11 6 0 12 7 16 15 3 8 1 15 -4 15 -10 0 17 57
31 66 6 3 3 -9 -7 -27 l-17 -34 23 20 24 20 -23 -38 c-24 -39 -34 -87 -19 -87
5 0 4 -9 -2 -20 -10 -18 -9 -19 16 -10 25 10 26 9 22 -20 -3 -22 -1 -27 8 -20
18 16 23 -8 13 -73 -19 -121 -68 -226 -140 -302 -27 -29 -49 -59 -49 -68 0
-28 38 -46 73 -36 18 5 64 9 103 9 59 0 77 -4 108 -25 41 -28 56 -31 74 -13
19 19 14 53 -11 76 -28 26 -98 52 -143 52 -19 0 -34 2 -34 4 0 2 15 35 34 72
39 79 66 164 66 208 0 17 7 40 15 50 14 18 20 15 16 -7 -1 -5 4 -5 10 -2 6 4
9 16 6 26 -3 10 -2 21 1 23 10 5 27 -16 27 -33 0 -26 21 -22 32 6 11 28 11 28
13 -12 1 -22 4 -32 7 -22 4 14 8 16 19 6 8 -6 14 -20 14 -31 0 -17 2 -18 15
-4 8 8 15 19 15 25 0 25 18 9 24 -21 l7 -33 14 25 c8 14 14 33 15 43 0 25 20
21 20 -4 0 -18 3 -19 14 -10 12 10 19 8 35 -8 12 -12 21 -25 21 -31 0 -19 18
-10 24 12 l6 23 25 -28 25 -28 0 30 c0 32 15 50 23 29 3 -7 6 -3 6 10 1 12 4
22 9 23 4 0 17 2 30 5 15 3 22 -1 22 -12 0 -8 -5 -12 -10 -9 -7 4 -9 -2 -4
-19 8 -31 -26 -145 -61 -209 -15 -25 -46 -69 -71 -96 -24 -27 -44 -59 -44 -70
0 -27 35 -41 75 -30 16 5 61 9 100 9 59 0 76 -4 109 -26 32 -22 42 -24 62 -15
77 35 -34 131 -153 131 l-31 0 38 73 c20 40 45 107 55 150 15 61 21 74 32 66
10 -9 13 -6 13 14 0 24 23 42 40 32 5 -3 7 12 4 32 -2 21 -2 32 2 26 3 -7 10
-13 15 -13 6 0 7 4 4 10 -12 19 7 10 27 -12 l19 -23 -6 29 c-4 19 -2 32 7 38
10 7 9 8 -4 4 -12 -3 -24 6 -40 32 -12 20 -26 39 -30 40 -4 2 -8 9 -8 15 0 15
49 -33 56 -56 4 -14 13 -18 30 -14 14 2 27 0 30 -4 3 -5 16 -6 30 -3 14 4 31
1 39 -6 13 -11 14 -10 9 4 -7 19 0 20 27 5 20 -10 20 -10 4 14 -13 20 -13 26
-3 30 10 3 10 9 1 25 -9 16 -9 24 2 38 13 18 14 18 44 -4 37 -27 55 -29 43 -4
-5 9 -7 23 -5 30 3 7 -11 32 -31 57 -20 24 -36 46 -36 49 0 3 22 -10 50 -29
50 -35 88 -47 74 -22 -5 8 -2 8 9 -2 15 -12 17 -11 17 2 0 9 -4 19 -10 22 -13
8 -13 65 0 65 6 0 3 11 -6 25 l-17 26 27 -11 c37 -14 41 -13 25 8 -12 14 -10
14 8 -2 12 -10 29 -16 38 -13 18 7 20 27 3 27 -6 0 -8 3 -5 7 4 3 2 12 -4 20
-9 10 -8 13 2 13 12 0 12 2 0 9 -9 6 -10 10 -2 16 7 4 18 1 26 -5 8 -7 16 -10
16 -6 1 3 2 9 3 14 1 4 5 12 9 19 12 19 -32 37 -92 38 -42 0 -55 4 -57 17 -2
13 3 15 26 8 38 -11 150 -10 150 1 0 5 -4 9 -9 9 -15 0 -40 47 -44 85 l-4 37
36 -6 c32 -6 34 -5 19 7 -16 13 -10 19 66 65 79 48 137 103 173 162 8 14 32
37 54 52 72 51 104 157 54 180 -20 9 -28 8 -44 -6 -11 -10 -21 -30 -23 -44 -6
-49 -25 -34 -38 30 -7 35 -17 67 -22 73 -10 11 -78 17 -78 6 0 -4 9 -47 20
-97 11 -49 20 -99 20 -111 0 -31 -103 -139 -161 -169 -51 -25 -79 -30 -79 -14
0 6 11 10 25 10 29 0 33 17 8 36 -19 15 -20 14 34 52 16 11 15 12 -9 7 -30 -6
-36 3 -16 23 9 9 8 12 -6 12 -15 0 -16 3 -6 15 10 13 9 15 -9 15 -20 0 -64 30
-44 30 4 0 1 5 -7 11 -13 8 -12 12 8 26 22 16 22 16 2 33 -18 15 -18 19 -5 30
21 17 19 30 -5 30 -13 0 -18 5 -13 16 4 12 0 14 -20 9 -41 -11 -52 3 -26 31
24 26 20 30 -12 14 -20 -11 -28 3 -9 15 6 3 10 15 10 27 0 17 -2 18 -15 8 -11
-9 -19 -10 -26 -3 -8 8 -7 13 0 17 25 16 9 26 -31 20 -36 -5 -41 -4 -30 7 19
20 16 53 -4 45 -14 -5 -15 -4 -4 9 18 22 4 31 -18 12 -22 -20 -39 -23 -25 -4
15 19 24 49 13 42 -6 -3 -10 2 -10 11 0 16 -1 16 -18 1 -20 -18 -33 -22 -31
-9 4 24 -2 52 -11 47 -5 -3 -10 2 -10 12 0 13 -5 10 -20 -12 -11 -16 -20 -25
-21 -20 -5 64 -21 72 -48 25 -28 -51 -34 -51 -14 -1 14 36 14 41 -1 56 -9 9
-16 12 -16 6 0 -6 -7 -11 -16 -11 -11 0 -15 6 -12 18 4 15 -1 19 -23 19 -22 0
-32 -7 -44 -34 -17 -35 -37 -37 -28 -3 7 27 -14 77 -33 77 -7 0 -14 -8 -14
-18 0 -9 -7 -19 -15 -23 -8 -3 -15 0 -15 7 0 9 -3 8 -9 -1 -6 -10 -10 -8 -16
10 -6 19 -8 20 -12 6 -6 -23 -15 -23 -33 2 -15 21 -40 27 -40 10 0 -18 -17
-10 -28 13 -6 12 -11 16 -11 8z m336 -133 c-3 -8 -6 -5 -6 6 -1 11 2 17 5 13
3 -3 4 -12 1 -19z m-180 -90 c-3 -8 -6 -5 -6 6 -1 11 2 17 5 13 3 -3 4 -12 1
-19z m-553 -4 c3 -8 2 -12 -4 -9 -6 3 -10 10 -10 16 0 14 7 11 14 -7z m916
-67 c0 -2 -12 -14 -27 -28 l-28 -24 24 28 c23 25 31 32 31 24z m24 -56 c-15
-14 -16 -14 -6 0 6 9 9 19 6 22 -3 3 -2 12 2 19 7 10 9 9 12 -6 2 -10 -4 -26
-14 -35z m-94 35 c0 -2 -8 -10 -17 -17 -16 -13 -17 -12 -4 4 13 16 21 21 21
13z m-640 -54 c0 -15 -2 -15 -10 -2 -13 20 -13 33 0 25 6 -3 10 -14 10 -23z
m521 -15 c-8 -8 -11 -5 -11 9 0 27 14 41 18 19 2 -9 -1 -22 -7 -28z m-703 -20
c6 -5 12 -13 12 -20 0 -6 -7 -2 -16 9 -13 16 -15 16 -10 2 7 -24 -1 -23 -14 1
-10 20 2 24 28 8z m-183 -37 c3 -5 -1 -10 -9 -10 -8 0 -18 5 -21 10 -3 6 1 10
9 10 8 0 18 -4 21 -10z m1140 -39 c-3 -6 -14 -11 -23 -11 -13 0 -13 2 4 14 21
15 30 14 19 -3z m-1220 -1 c3 -6 -1 -7 -9 -4 -18 7 -21 14 -7 14 6 0 13 -4 16
-10z m1320 -30 c-3 -5 -14 -10 -23 -10 -15 0 -15 2 -2 10 20 13 33 13 25 0z
m51 -35 c-11 -8 -29 -15 -40 -14 -15 0 -11 4 14 14 45 17 49 17 26 0z m-841
-72 c38 -15 42 -21 64 -90 26 -83 23 -140 -9 -203 -27 -53 -54 -73 -101 -73
-51 0 -82 28 -107 98 -24 64 -18 84 13 50 49 -52 145 -17 145 54 0 45 -39 85
-83 85 -20 0 -44 -8 -55 -17 -28 -25 -34 -10 -12 33 18 34 71 79 95 80 5 0 28
-8 50 -17z m269 2 c97 -46 112 -257 26 -340 -70 -67 -164 -11 -185 110 l-8 40
30 -27 c60 -57 143 -23 143 58 0 66 -65 100 -125 65 -19 -11 -35 -16 -35 -10
0 36 74 119 107 119 8 0 30 -7 47 -15z m553 -41 c-3 -3 -12 -4 -19 -1 -8 3 -5
6 6 6 11 1 17 -2 13 -5z m-37 -14 c0 -5 -8 -10 -17 -10 -15 0 -16 2 -3 10 19
12 20 12 20 0z m-1233 -116 c-3 -3 -12 -4 -19 -1 -8 3 -5 6 6 6 11 1 17 -2 13
-5z m90 -80 c-3 -3 -12 -4 -19 -1 -8 3 -5 6 6 6 11 1 17 -2 13 -5z m1221 -131
c-10 -2 -26 -2 -35 0 -10 3 -2 5 17 5 19 0 27 -2 18 -5z m-1560 -72 c8 -4 13
-12 13 -17 -1 -5 4 -10 9 -10 6 -1 13 -2 17 -3 4 0 -2 -8 -13 -16 -16 -12 -16
-14 -3 -15 9 0 19 -10 22 -22 5 -18 8 -19 22 -8 22 18 27 9 11 -21 -7 -13 -11
-30 -8 -37 5 -16 -30 -15 -96 2 -74 20 -140 66 -126 88 4 5 27 23 52 39 47 29
76 35 100 20z m55 2 c-7 -2 -19 -2 -25 0 -7 3 -2 5 12 5 14 0 19 -2 13 -5z
m1007 -84 c0 -11 -4 -17 -10 -14 -5 3 -10 15 -10 26 0 11 5 17 10 14 6 -3 10
-15 10 -26z m355 -11 c24 -11 30 -16 15 -13 -14 2 -32 5 -40 5 -8 0 -26 10
-40 21 l-25 20 25 -7 c14 -4 43 -15 65 -26z m-327 -54 c-4 -3 -12 5 -18 18
-12 22 -12 22 6 6 10 -10 15 -20 12 -24z m-878 6 c0 -5 -5 -10 -11 -10 -5 0
-7 5 -4 10 3 6 8 10 11 10 2 0 4 -4 4 -10z m1181 -67 c13 -16 12 -17 -3 -4
-17 13 -22 21 -14 21 2 0 10 -8 17 -17z m-911 -63 c-6 -11 -13 -20 -16 -20 -2
0 0 9 6 20 6 11 13 20 16 20 2 0 0 -9 -6 -20z m720 -45 c14 -19 14 -19 -2 -6
-10 7 -18 18 -18 24 0 6 1 8 3 6 1 -2 9 -13 17 -24z m47 -30 c0 -20 -4 -19
-17 5 -8 15 -8 18 3 14 8 -3 14 -11 14 -19z m34 -52 l24 -26 -27 19 c-15 10
-28 22 -28 27 0 12 5 8 31 -20z m-249 -78 c3 -14 1 -25 -3 -25 -5 0 -9 11 -9
25 0 14 2 25 4 25 2 0 6 -11 8 -25z m-574 -58 c-11 -32 -22 -56 -24 -54 -4 4
22 93 32 108 15 25 11 -2 -8 -54z m491 30 c0 -21 -1 -21 -9 -2 -12 28 -12 37
0 30 6 -3 10 -16 9 -28z m-142 -79 c-3 -8 -6 -5 -6 6 -1 11 2 17 5 13 3 -3 4
-12 1 -19z"/>
<path d="M2702 2105 c-75 -85 -35 -224 54 -186 44 19 67 58 72 122 4 48 1 60
-17 78 -32 32 -73 27 -109 -14z"/>
<path d="M2571 2088 c-23 -63 -22 -73 9 -85 29 -11 30 -10 40 25 14 51 13 69
-6 76 -26 10 -34 7 -43 -16z"/>
<path d="M2876 2043 c-3 -10 -8 -35 -12 -55 -5 -30 -3 -38 9 -38 8 0 22 -3 30
-6 10 -4 18 8 26 42 7 25 11 48 9 49 -7 5 -47 25 -52 25 -2 0 -7 -8 -10 -17z"/>
<path d="M2620 1901 c0 -5 -6 -16 -14 -24 -13 -13 -11 -18 16 -46 36 -37 41
-38 61 -7 15 22 14 25 -17 55 -33 32 -46 38 -46 22z m41 -78 c13 -16 12 -17
-3 -4 -17 13 -22 21 -14 21 2 0 10 -8 17 -17z"/>
</g>
</svg>
