<?xml version="1.0" encoding="UTF-8"?>
<svg version="1.1" xmlns="http://www.w3.org/2000/svg" width="150" height="104">
<path d="M0 0 C1.09993286 -0.00511093 2.19986572 -0.01022186 3.33312988 -0.01548767 C6.96319037 -0.02936881 10.59306068 -0.02842791 14.22314453 -0.02612305 C16.75131297 -0.03001089 19.27948076 -0.03434574 21.80764771 -0.03910828 C27.10518785 -0.0465674 32.40265846 -0.04642018 37.70019531 -0.04101562 C43.80892366 -0.03497894 49.9174215 -0.04728284 56.02611053 -0.06858569 C61.91969276 -0.0883768 67.81320405 -0.09136934 73.70682144 -0.08785057 C76.20661078 -0.08836328 78.70640384 -0.09359154 81.20617294 -0.10366249 C84.70533639 -0.11602935 88.20396973 -0.10923302 91.703125 -0.09765625 C92.73092072 -0.10529999 93.75871643 -0.11294373 94.81765747 -0.12081909 C101.69727375 -0.07063316 107.51583064 0.67428017 113.18798828 4.9309082 C120.99102646 13.89206154 121.43866546 24.15344011 121.37939453 35.61450195 C121.3836998 37.4795211 121.3836998 37.4795211 121.38809204 39.38221741 C121.39012236 41.99667825 121.38466531 44.61115464 121.37207031 47.22558594 C121.3560168 51.19737184 121.37194861 55.1681381 121.39111328 59.13989258 C121.3891304 61.69393125 121.38528581 64.2479693 121.37939453 66.80200195 C121.38546722 67.97423813 121.39153992 69.1464743 121.39779663 70.35423279 C121.31071299 80.71231772 120.5354552 91.03497138 112.93017578 98.7199707 C105.06069721 104.99662896 94.02141405 104.4251161 84.44482422 104.41992188 C83.08429176 104.42495979 83.08429176 104.42495979 81.6962738 104.43009949 C78.72344561 104.4395309 75.75067422 104.44154869 72.77783203 104.44262695 C70.69191465 104.4458451 68.60599749 104.44920958 66.52008057 104.45271301 C62.15595985 104.45868488 57.79185888 104.46055493 53.42773438 104.45996094 C47.86568386 104.45985946 42.3037614 104.47350559 36.74174118 104.49073315 C32.43489004 104.5019117 28.12806929 104.50387835 23.82120514 104.50335121 C21.7721233 104.50452275 19.72304046 104.50889749 17.67397308 104.51668358 C-14.48475327 104.62743985 -14.48475327 104.62743985 -23.26904297 96.0871582 C-28.9282191 86.99205371 -29.17642123 76.89146428 -29.18701172 66.48168945 C-29.19034012 65.33987717 -29.19366852 64.19806488 -29.19709778 63.02165222 C-29.20215202 60.60851442 -29.20450657 58.19536965 -29.2043457 55.78222656 C-29.20652494 52.11747499 -29.22467704 48.45302816 -29.24365234 44.78833008 C-29.24658814 42.43611756 -29.24857169 40.08390362 -29.24951172 37.73168945 C-29.25669724 36.64797562 -29.26388275 35.56426178 -29.27128601 34.44770813 C-29.24099957 24.20102533 -28.72608557 14.47430855 -22.01904297 6.2746582 C-15.54796777 -0.03049199 -8.54623022 -0.02051916 0 0 Z M31.98095703 31.2746582 C31.98095703 44.8046582 31.98095703 58.3346582 31.98095703 72.2746582 C35.66393394 70.80146744 38.80496522 69.34612134 42.21923828 67.41137695 C43.20472656 66.85385742 44.19021484 66.29633789 45.20556641 65.72192383 C46.22457031 65.14120117 47.24357422 64.56047852 48.29345703 63.9621582 C49.30085938 63.39303711 50.30826172 62.82391602 51.34619141 62.23754883 C56.97751133 59.04218749 62.51952838 55.75248553 67.98095703 52.2746582 C65.42331778 49.38866595 62.5120434 47.70675754 59.17626953 45.8059082 C58.03544922 45.15235352 56.89462891 44.49879883 55.71923828 43.82543945 C54.51490226 43.14168528 53.31047434 42.45809296 52.10595703 41.7746582 C50.90908385 41.09151733 49.71246652 40.40792798 48.51611328 39.72387695 C46.30799476 38.46173931 44.09865003 37.20174279 41.88769531 35.94458008 C39.98100317 34.84918496 38.09269499 33.72101003 36.2265625 32.55786133 C34.12260575 31.10927856 34.12260575 31.10927856 31.98095703 31.2746582 Z " fill="#D2D2D3" transform="translate(29.01904296875,-0.274658203125)"/>
</svg>
