<svg width="17" height="18" viewBox="0 0 17 18" fill="none" xmlns="http://www.w3.org/2000/svg">
<mask id="mask0_502_5098" style="mask-type:alpha" maskUnits="userSpaceOnUse" x="0" y="0" width="17" height="18">
<path fill-rule="evenodd" clip-rule="evenodd" d="M0 0H17V17.2727H0V0Z" fill="white"/>
</mask>
<g mask="url(#mask0_502_5098)">
<path fill-rule="evenodd" clip-rule="evenodd" d="M8.49999 0C6.19155 0 5.90205 0.00994182 4.99547 0.0519717C4.09071 0.0938988 3.47284 0.239906 2.93215 0.453416C2.37323 0.67409 1.89917 0.969396 1.42663 1.44952C0.954056 1.92967 0.663446 2.4113 0.446223 2.97919C0.236085 3.52856 0.0924162 4.15633 0.0511174 5.07561C0.0097511 5.99677 0 6.29084 0 8.63636C0 10.9819 0.0097511 11.276 0.0511174 12.1971C0.0924162 13.1164 0.236085 13.7442 0.446223 14.2935C0.663446 14.8614 0.954056 15.3431 1.42663 15.8232C1.89917 16.3033 2.37323 16.5986 2.93215 16.8194C3.47284 17.0328 4.09071 17.1788 4.99547 17.2208C5.90205 17.2628 6.19155 17.2727 8.49999 17.2727C10.8085 17.2727 11.0979 17.2628 12.0045 17.2208C12.9093 17.1788 13.5271 17.0328 14.0678 16.8194C14.6268 16.5986 15.1008 16.3033 15.5734 15.8232C16.0459 15.3431 16.3365 14.8614 16.5538 14.2935C16.7639 13.7442 16.9076 13.1164 16.9489 12.1971C16.9902 11.276 17 10.9819 17 8.63636C17 6.29087 16.9902 5.99677 16.9489 5.07561C16.9076 4.15633 16.7639 3.52856 16.5538 2.97919C16.3365 2.4113 16.0459 1.92967 15.5734 1.44952C15.1008 0.969396 14.6268 0.67409 14.0678 0.453416C13.5271 0.239906 12.9093 0.0938988 12.0045 0.0519717C11.0979 0.00994182 10.8085 0 8.49999 0M8.49996 1.55615C10.7696 1.55615 11.0384 1.56493 11.9347 1.60648C12.7634 1.64491 13.2135 1.7856 13.513 1.90388C13.9098 2.06055 14.1929 2.24769 14.4904 2.54989C14.7878 2.85212 14.972 3.13982 15.1262 3.54294C15.2426 3.84726 15.3811 4.30455 15.4189 5.14659C15.4597 6.05726 15.4684 6.33042 15.4684 8.63641C15.4684 10.9424 15.4597 11.2156 15.4189 12.1262C15.3811 12.9683 15.2426 13.4256 15.1262 13.7299C14.972 14.133 14.7878 14.4207 14.4904 14.7229C14.1929 15.0252 13.9098 15.2123 13.513 15.369C13.2135 15.4872 12.7634 15.6279 11.9347 15.6663C11.0385 15.7079 10.7697 15.7167 8.49996 15.7167C6.23018 15.7167 5.9614 15.7079 5.06524 15.6663C4.2365 15.6279 3.78639 15.4872 3.48688 15.369C3.09015 15.2123 2.80697 15.0252 2.50954 14.7229C2.21211 14.4207 2.02789 14.133 1.87369 13.7299C1.75732 13.4256 1.61885 12.9683 1.58103 12.1263C1.54013 11.2156 1.53149 10.9424 1.53149 8.63641C1.53149 6.33042 1.54013 6.05726 1.58103 5.14659C1.61885 4.30455 1.75732 3.84726 1.87369 3.54294C2.02789 3.13982 2.21211 2.85212 2.50954 2.54992C2.80697 2.24769 3.09015 2.06055 3.48688 1.90388C3.78639 1.7856 4.2365 1.64491 5.06521 1.60648C5.96153 1.56493 6.23034 1.55615 8.49996 1.55615" fill="white"/>
</g>
<path fill-rule="evenodd" clip-rule="evenodd" d="M8.49949 11.5149C6.93469 11.5149 5.66614 10.226 5.66614 8.6361C5.66614 7.0462 6.93469 5.75732 8.49949 5.75732C10.0643 5.75732 11.3328 7.0462 11.3328 8.6361C11.3328 10.226 10.0643 11.5149 8.49949 11.5149M8.49965 4.20117C6.089 4.20117 4.13477 6.18672 4.13477 8.63605C4.13477 11.0854 6.089 13.071 8.49965 13.071C10.9103 13.071 12.8645 11.0854 12.8645 8.63605C12.8645 6.18672 10.9103 4.20117 8.49965 4.20117" fill="white"/>
<path fill-rule="evenodd" clip-rule="evenodd" d="M14.0576 4.02548C14.0576 4.59786 13.6009 5.06183 13.0376 5.06183C12.4743 5.06183 12.0176 4.59786 12.0176 4.02548C12.0176 3.45311 12.4743 2.98914 13.0376 2.98914C13.6009 2.98914 14.0576 3.45311 14.0576 4.02548" fill="white"/>
</svg>
