<svg width="20" height="14" viewBox="0 0 20 14" fill="none" xmlns="http://www.w3.org/2000/svg">
<path d="M19.5836 2.18547C19.4687 1.76098 19.2442 1.37419 18.9325 1.06395C18.6208 0.753705 18.233 0.530934 17.8079 0.418004C16.2478 0 9.99589 0 9.99589 0C9.99589 0 3.74229 0 2.18547 0.418004C1.76181 0.53189 1.37553 0.75512 1.06532 1.06532C0.75512 1.37553 0.53189 1.76181 0.418004 2.18547C0 3.74393 0 6.99745 0 6.99745C0 6.99745 0 10.251 0.418004 11.8094C0.53189 12.2331 0.75512 12.6194 1.06532 12.9296C1.37553 13.2398 1.76181 13.463 2.18547 13.5769C3.74393 13.9883 9.99589 13.9883 9.99589 13.9883C9.99589 13.9883 16.2495 13.9883 17.8079 13.5703C18.2322 13.458 18.6195 13.2362 18.9311 12.9272C19.2427 12.6181 19.4677 12.2327 19.5836 11.8094C20 10.251 20 6.99745 20 6.99745C20 6.99745 19.9918 3.74393 19.5836 2.18547ZM7.99638 9.99589V3.99901L13.1918 6.99745L7.99638 9.99589Z" fill="white"/>
</svg>
