<svg xmlns="http://www.w3.org/2000/svg" viewBox="0 0 18 18">
  <defs>
    <style>
      .a {
        fill: #fff;
      }
    </style>
  </defs>
  <path class="a" d="M15.36,13.85a8,8,0,0,0,.1-9.56h0A8,8,0,1,0,9,17H9A8,8,0,0,0,15.28,14h0l.08-.09Zm-.58-1.13a8.77,8.77,0,0,0-1.44-1A9.83,9.83,0,0,0,13.72,9a9.67,9.67,0,0,0-.32-2.51,9.1,9.1,0,0,0,1.49-1,6.85,6.85,0,0,1,1,3.56,6.77,6.77,0,0,1-1.1,3.72ZM5.44,9a8.26,8.26,0,0,1,.23-2,8.92,8.92,0,0,0,2.77.61v3a8.89,8.89,0,0,0-2.71.6A8.56,8.56,0,0,1,5.44,9ZM9.56,2.6A7.81,7.81,0,0,1,12,5.91a7.74,7.74,0,0,1-2.48.58Zm-1.12,0V6.49A8,8,0,0,1,6,5.93,7.92,7.92,0,0,1,8.44,2.62Zm0,9.14v3.63a8.1,8.1,0,0,1-2.35-3.1,8.19,8.19,0,0,1,2.35-.53ZM9.56,15.4V11.76a7.78,7.78,0,0,1,2.39.55A7.84,7.84,0,0,1,9.56,15.4Zm0-4.76v-3A8.91,8.91,0,0,0,12.37,7a9,9,0,0,1,.23,2,8.64,8.64,0,0,1-.29,2.25,9.15,9.15,0,0,0-2.75-.61Zm4.67-6.1A8.44,8.44,0,0,1,13,5.41a8.78,8.78,0,0,0-2-3,6.86,6.86,0,0,1,3.17,2.11ZM7,2.42a9,9,0,0,0-2,3,8.85,8.85,0,0,1-1.22-.89A6.78,6.78,0,0,1,7,2.42Zm-3.88,3A9.35,9.35,0,0,0,4.64,6.51,9.51,9.51,0,0,0,4.32,9a9.38,9.38,0,0,0,.38,2.71,8.79,8.79,0,0,0-1.48,1A6.77,6.77,0,0,1,2.12,9a6.85,6.85,0,0,1,1-3.56Zm.79,8.17a8.08,8.08,0,0,1,1.18-.83A9.19,9.19,0,0,0,7,15.58,6.83,6.83,0,0,1,3.9,13.61Zm7.16,2A9.13,9.13,0,0,0,13,12.8a8,8,0,0,1,1.15.81,7,7,0,0,1-3,2Z"/>
</svg>
