<svg width="12" height="10" viewBox="0 0 12 10" fill="none" xmlns="http://www.w3.org/2000/svg">
<path d="M2.80473 9.94083C4.36686 9.94083 5.46746 8.84024 5.46746 7.49112C5.46746 6.071 4.36686 5.04142 2.98225 5.04142C2.66272 5.04142 2.3787 5.11243 2.27219 5.21894C2.52071 3.83432 3.26627 2.73373 4.7929 1.1716L3.69231 0C1.27811 1.88166 0 4.8639 0 6.99408C0 8.69822 1.13609 9.94083 2.80473 9.94083ZM9.33728 9.90533C10.8639 9.90533 12 8.84024 12 7.49112C12 6.0355 10.8639 5.04142 9.47929 5.04142C9.15976 5.04142 8.91124 5.07692 8.76923 5.21894C9.05325 3.79882 9.76331 2.69822 11.2899 1.1716L10.1893 0C7.77515 1.88166 6.53255 4.8639 6.53255 6.99408C6.53255 8.66272 7.63314 9.90533 9.33728 9.90533Z" fill="#212121"/>
</svg>
