<svg xmlns="http://www.w3.org/2000/svg" viewBox="0 0 22 22">
  <defs>
    <style>
      .a {
        fill: #fff;
      }
    </style>
  </defs>
  <path class="a" d="M20.65,17.58,18.4,15.34,18,14.92a1.2,1.2,0,0,0-1.7,0l-.18.18L15,14a7.94,7.94,0,1,0-11.71.54,7.43,7.43,0,0,0,.73.64l0,0A8,8,0,0,0,14,15.05l1.08,1.07-.09.1-.07.07a1.2,1.2,0,0,0,0,1.7l.41.41,2.25,2.25a1.31,1.31,0,0,0,.34.24l.11,0,.05,0a1.41,1.41,0,0,0,.35.05,1.24,1.24,0,0,0,.85-.35l1.36-1.36a1.21,1.21,0,0,0,0-1.71Zm-16-4.39a6,6,0,1,1,8.83-.38l-.72.72a6,6,0,0,1-8.11-.34Z"/>
</svg>
