<svg width="111" height="36" viewBox="0 0 111 36" fill="none" xmlns="http://www.w3.org/2000/svg">
<path d="M109.367 29.2946C108.977 29.2946 107.61 29.2946 107.154 29.2295C105.917 29.0342 105.071 28.3832 105.071 26.8859V6.90039H98.3656V16.8606C96.2173 14.0613 92.8321 12.3036 88.9912 12.3036C84.89 12.3036 81.3095 14.3868 79.1612 17.5116V13.1499H73.5627V6.96549H66.8574V27.5369C66.8574 33.1355 70.0473 35.2187 76.0365 35.2187C77.3384 35.2187 78.38 35.2187 79.1612 35.0234V30.7919C81.3095 33.9167 84.89 35.9999 88.9912 35.9999C91.9858 35.9999 94.7851 34.8932 96.8683 33.0053L93.1576 27.8624C92.116 29.0342 90.6187 29.7503 88.9912 29.7503C85.8665 29.7503 83.3927 27.2114 83.3927 24.1518C83.3927 21.027 85.9316 18.5532 88.9912 18.5532C89.9677 18.5532 90.8791 18.8136 91.6603 19.2693L85.8665 23.3055L88.7959 27.4067L98.3005 20.8317V27.4718C98.3005 33.0704 101.49 35.1536 107.479 35.1536C108.781 35.1536 109.758 35.1536 110.669 34.9583V29.2295C110.344 29.2946 109.563 29.2946 109.367 29.2946ZM78.38 29.2946C78.1847 29.2946 77.9894 29.2946 77.9243 29.2946C77.5337 29.2946 76.1666 29.2946 75.711 29.2295C74.4741 29.0342 73.6278 28.3832 73.6278 26.8859V18.9438H78.4451C77.6639 20.5062 77.2082 22.2639 77.2082 24.1518C77.1431 25.9745 77.5988 27.7322 78.38 29.2946Z" fill="white"/>
<path d="M65.3599 21.2875C65.3599 16.2749 61.3237 12.2387 56.311 12.2387C52.4702 12.2387 49.2152 14.6474 47.8481 18.0326C45.7649 14.5823 41.9892 12.2387 37.6926 12.2387C34.5678 12.2387 31.7034 13.4756 29.5552 15.4286C29.5552 15.2333 29.5552 14.9729 29.5552 14.7776C29.5552 6.57505 22.915 0 14.7125 0C6.64015 0 0 6.64014 0 14.7776V35.0886H7.81194C7.81194 35.0886 7.81194 15.1682 7.81194 14.7776C7.81194 10.8065 10.9367 7.68174 14.8427 7.68174C18.7486 7.68174 21.8734 10.8065 21.8734 14.7776C21.8734 18.7486 18.7486 21.8083 14.8427 21.8083C12.5642 21.8083 10.6112 20.8318 9.30922 19.2043V28.5787C11.0018 29.2948 12.8897 29.6203 14.8427 29.6203C18.0326 29.6203 21.0271 28.5787 23.4358 26.8861C24.3472 26.2351 25.1935 25.519 25.9096 24.6727C26.17 30.9873 31.3779 36 37.7577 36C40.7523 36 43.5515 34.8933 45.6347 33.0054L41.9241 27.8626C40.8825 29.0344 39.3852 29.7505 37.7577 29.7505C34.6329 29.7505 32.1591 27.2116 32.1591 24.1519C32.1591 21.0271 34.698 18.5533 37.7577 18.5533C38.7342 18.5533 39.6456 18.8137 40.4268 19.2694L34.6329 23.3056L37.5624 27.4069L47.2622 20.7016C47.2622 20.8969 47.1971 21.1573 47.1971 21.3526V21.4177V21.6781V35.1537H53.9024C53.9024 35.1537 53.9024 21.3526 53.9024 20.7667C53.9024 18.9439 55.3996 18.358 56.2459 18.358C57.0922 18.358 58.5895 18.9439 58.5895 20.7667V35.1537H65.2948C65.2948 35.1537 65.2948 22.7848 65.2948 21.6781C65.3599 21.5479 65.3599 21.4177 65.3599 21.2875Z" fill="white"/>
</svg>
