<svg xmlns="http://www.w3.org/2000/svg" viewBox="0 0 1302 340">
  <defs>
    <style>
      .a {
        fill: #f7f7f7;
      }
    </style>
  </defs>
  <path class="a" d="M309.78,340a44.39,44.39,0,0,1-6.28-21.79c-.47-29,25.69-48.13,54-64.5,23.7-13.69,55.18-28.61,88.5-44.4,41.76-19.79,85-40.25,119.28-61.06,44.46-26.95,51-40.93,51.81-43.27-.45-7-2.62-14.9-18.29-22.31-47.65-22.5-161.3-12.92-296.58,25C188.42,139.6,74.86,187.39,0,234V153C77.87,110.15,179.41,69.43,283.35,40.28c91.31-25.6,257.59-62.36,345.38-20.9,35.79,16.91,56.52,46.33,58.35,82.84,1,20.49-7.63,40.74-25.72,60.2-12.28,13.19-29.25,26.54-51.91,40.84-38.72,24.43-89,48.27-133.44,69.31l-19.42,9.22C472,278.06,489,273.64,508,268.48c77.32-21,172.58-50.69,264.71-79.38,37-11.52,75.19-23.42,110.89-34.33,133.89-40.92,228.1-50.07,283.55-50.55,69.14-.62,114.38,11.13,134.89,34.92v64.49c-5.53,6.72-13.15,13.18-23.3,19-7,4.06-13.32,8-18.83,11.61,10.94-.43,24.74-1.44,42.13-3.37v70.45a526.94,526.94,0,0,1-56.06,3.14c-18.73-.13-68.48-.47-81.87-37.21-3-8.22-6.18-25,6.22-44.9,5-8,12-15.95,21.62-24.38a268.31,268.31,0,0,1,27.29-20.74c-16-2.37-38.7-3.88-69.28-2.58-48.74,2.07-131,11.91-245.9,47-35.52,10.86-73.66,22.74-110.54,34.22-96.37,30-196,61-276.21,82.55L511.56,340Zm52.39-43ZM617.23,104.64Z"/>
</svg>
