<svg xmlns="http://www.w3.org/2000/svg" viewBox="0 0 1364 332">
  <defs>
    <style>
      .a {
        fill: #f6f6f6;
      }
    </style>
  </defs>
  <path class="a" d="M516.75,74.63c55.49-7.46,77.91-2.26,85.64.8-4.65,4.94-17,15.62-48.5,33.56-30.41,17.33-68.55,35.81-105.43,53.69-38,18.41-73.86,35.8-101.4,51.83-29.93,17.41-61.74,38.66-60.39,70.54.38,9,4.48,31.14,34.21,42.56,6.85,2.64,15.33,4.29,27.63,4.29,26.21,0,69.74-7.54,151.65-29.28,80.18-21.29,179.94-51.69,276.42-81.1,36.94-11.26,75.14-22.9,110.72-33.56,114.74-34.37,196.74-45.08,245.31-48,25.42-1.54,45.45-1.18,60.78,0-6.55,4.39-13.06,9.1-19.05,14-9.63,7.85-16.8,15.26-21.94,22.64-13.64,19.61-10.72,36.57-7.76,44.94,3.76,10.62,13.24,24.67,37,31.22,11.44,3.15,26.11,4.57,44.83,4.34,32.51-.39,77.66-5.64,137.5-16V170c-51.15,9.12-86.78,13.62-111.43,15.65,2.26-1.29,4.62-2.61,7.07-3.94,12.2-6.65,21.12-14,27.26-22.62,10-13.92,12.11-30.52,5.85-45.54-7.79-18.7-26.37-31.16-56.79-38.09-22.55-5.13-51.33-7.28-85.54-6.39-55.11,1.44-149,11.6-283.21,51.81-35.74,10.7-74,22.37-111,33.65-92.52,28.2-188.18,57.36-265.71,78.19-20.26,5.45-38.37,10.08-54.54,14,13.67-6.79,28.18-13.82,43.07-21,118.2-57.29,185.47-91.93,193.79-137.54,5.3-29.06-5.39-54.58-29.33-70C615-.26,568.82-3.93,498.27,6.55,442.77,14.79,373.41,32,297.67,56.41,190.09,91,82.7,135.56,0,178.91v79.74c83.09-47.39,206.2-99.79,326.37-137.93C399.69,97.45,465.52,81.51,516.75,74.63ZM344.15,261.7Z"/>
</svg>
