<svg xmlns="http://www.w3.org/2000/svg" viewBox="0 0 1364 345">
  <defs>
    <style>
      .a {
        fill: #f6f6f6;
      }
    </style>
  </defs>
  <path class="a" d="M1364,305.53c-42.21,11.7-79,20.86-110.06,27.4-34.07,7.18-60.17,11-79.79,11.68-1.75.06-4,.14-6.7.14-15.49,0-43.73-2.69-55-27.32-3.31-7.22-7.42-22,2.28-39.65,3.62-6.61,9-13.14,16.31-20,11-10.2,26.91-21.63,48.79-34.94,10.39-6.32,18.75-11.82,25.45-16.55-10.08.12-22.86.77-39,2.32-42,4.06-95.46,13.23-154.6,26.53-186.78,42-336.93,66.22-446.28,72-54.28,2.86-98.4,1-131.12-5.49-41.33-8.2-67.42-24.14-79.77-48.71-8.35-16.62-7.62-35.44,2.07-53,5.84-10.57,15.08-21,28.27-31.93,20.2-16.73,48.4-33.5,75.66-49.72,20.75-12.34,42.2-25.1,58.7-37,5.75-4.15,10.21-7.71,13.65-10.7-12.47.28-32.47,1.88-63.39,7-48,7.91-105.7,21.42-166.77,39.05C234.35,136.3,116.46,174.5,0,231.76V154.25q40.67-18.88,85-36.71A2100.77,2100.77,0,0,1,302.16,44C367.34,25.83,429.94,12.12,478.45,5.35c72.3-10.1,97.1-3.58,112.1,9.31,22.22,19.09,23.92,40.67,23,51.83-3.87,44.52-56.39,75.76-117.2,111.94-20.25,12-39.37,23.42-54.71,34.29a167.75,167.75,0,0,0-16.94,13.4c14.11,6.49,51.77,16.38,146.26,10.58,104.8-6.44,247.93-29.94,425.41-69.85,72.46-16.29,136.1-26.52,184-29.59,49.07-3.13,101.26-1.29,116.37,36.12,5.75,14.22,7.12,36.79-19,63.58-7.91,8.12-18.28,16.73-31.37,26q9-1.95,19.14-4.32,43.08-10.09,98.47-25.82ZM416.85,221.15ZM551.15,71.51Z"/>
</svg>
