<svg width="17" height="14" viewBox="0 0 17 14" fill="none" xmlns="http://www.w3.org/2000/svg">
<path fill-rule="evenodd" clip-rule="evenodd" d="M16.5 7C16.5 10.866 12.9183 14 8.5 14C7.00836 14 5.61208 13.6428 4.41677 13.0208L0.5 14L1.8383 10.8773C0.992801 9.7673 0.5 8.43401 0.5 7C0.5 3.13401 4.08172 0 8.5 0C12.9183 0 16.5 3.13401 16.5 7ZM5.5 7C5.5 6.44772 5.05228 6 4.5 6C3.94772 6 3.5 6.44772 3.5 7C3.5 7.55228 3.94772 8 4.5 8C5.05228 8 5.5 7.55228 5.5 7ZM13.5 7C13.5 6.44772 13.0523 6 12.5 6C11.9477 6 11.5 6.44772 11.5 7C11.5 7.55228 11.9477 8 12.5 8C13.0523 8 13.5 7.55228 13.5 7ZM7.5 7C7.5 6.44772 7.94772 6 8.5 6C9.05229 6 9.5 6.44772 9.5 7C9.5 7.55228 9.05229 8 8.5 8C7.94772 8 7.5 7.55228 7.5 7Z" fill="#3A3E40"/>
</svg>
