<svg width="12" height="13" viewBox="0 0 12 13" fill="none" xmlns="http://www.w3.org/2000/svg">
<path fill-rule="evenodd" clip-rule="evenodd" d="M6.0002 11.3C8.65116 11.3 10.8002 9.15092 10.8002 6.49995C10.8002 3.84898 8.65116 1.69995 6.0002 1.69995C3.34923 1.69995 1.2002 3.84898 1.2002 6.49995C1.2002 9.15092 3.34923 11.3 6.0002 11.3ZM8.22446 5.72422C8.45877 5.4899 8.45877 5.11 8.22446 4.87569C7.99015 4.64137 7.61025 4.64137 7.37593 4.87569L5.4002 6.85142L4.62446 6.07569C4.39015 5.84137 4.01025 5.84137 3.77593 6.07569C3.54162 6.31 3.54162 6.6899 3.77593 6.92422L4.97593 8.12422C5.21025 8.35853 5.59015 8.35853 5.82446 8.12422L8.22446 5.72422Z" fill="#A59BAD"/>
</svg>
